<svg width="110" height="110" viewBox="0 0 110 110" fill="none" xmlns="http://www.w3.org/2000/svg">
<path d="M70.4688 3.4375H8.59375C7.22623 3.4375 5.91472 3.98075 4.94773 4.94773C3.98075 5.91472 3.4375 7.22623 3.4375 8.59375V49.8438C3.4375 51.2113 3.98075 52.5228 4.94773 53.4898C5.91472 54.4568 7.22623 55 8.59375 55H33.3128L28.1566 65.3125H27.5C26.1325 65.3125 24.821 65.8557 23.854 66.8227C22.887 67.7897 22.3438 69.1012 22.3438 70.4688C22.3438 71.8363 22.887 73.1478 23.854 74.1148C24.821 75.0817 26.1325 75.625 27.5 75.625H51.5625C52.93 75.625 54.2415 75.0817 55.2085 74.1148C56.1755 73.1478 56.7188 71.8363 56.7188 70.4688C56.7188 69.1012 56.1755 67.7897 55.2085 66.8227C54.2415 65.8557 52.93 65.3125 51.5625 65.3125H50.9059L45.7497 55H70.4688C71.8363 55 73.1478 54.4568 74.1148 53.4898C75.0817 52.5228 75.625 51.2113 75.625 49.8438V8.59375C75.625 7.22623 75.0817 5.91472 74.1148 4.94773C73.1478 3.98075 71.8363 3.4375 70.4688 3.4375ZM53.2812 70.4688C53.2812 70.9246 53.1002 71.3618 52.7778 71.6841C52.4555 72.0064 52.0183 72.1875 51.5625 72.1875H27.5C27.0442 72.1875 26.607 72.0064 26.2847 71.6841C25.9623 71.3618 25.7812 70.9246 25.7812 70.4688C25.7812 70.0129 25.9623 69.5757 26.2847 69.2534C26.607 68.9311 27.0442 68.75 27.5 68.75H51.5625C52.0183 68.75 52.4555 68.9311 52.7778 69.2534C53.1002 69.5757 53.2812 70.0129 53.2812 70.4688ZM47.0628 65.3125H31.9997L37.1559 55H41.9066L47.0628 65.3125ZM72.1875 49.8438C72.1875 50.2996 72.0064 50.7368 71.6841 51.0591C71.3618 51.3814 70.9246 51.5625 70.4688 51.5625H8.59375C8.13791 51.5625 7.70074 51.3814 7.37841 51.0591C7.05608 50.7368 6.875 50.2996 6.875 49.8438V8.59375C6.875 8.13791 7.05608 7.70074 7.37841 7.37841C7.70074 7.05608 8.13791 6.875 8.59375 6.875H70.4688C70.9246 6.875 71.3618 7.05608 71.6841 7.37841C72.0064 7.70074 72.1875 8.13791 72.1875 8.59375V49.8438Z" fill="black"/>
<path d="M67.0312 10.3125H61.875V13.75H65.3125V17.1875H68.75V12.0312C68.75 11.5754 68.5689 11.1382 68.2466 10.8159C67.9243 10.4936 67.4871 10.3125 67.0312 10.3125Z" fill="black"/>
<path d="M65.3125 18.9062H68.75V22.3438H65.3125V18.9062Z" fill="black"/>
<path d="M72.1875 79.0625H6.875C6.41916 79.0625 5.98199 79.2436 5.65966 79.5659C5.33733 79.8882 5.15625 80.3254 5.15625 80.7812V104.844C5.15625 105.3 5.33733 105.737 5.65966 106.059C5.98199 106.381 6.41916 106.562 6.875 106.562H72.1875C72.6433 106.562 73.0805 106.381 73.4028 106.059C73.7252 105.737 73.9062 105.3 73.9062 104.844V80.7812C73.9062 80.3254 73.7252 79.8882 73.4028 79.5659C73.0805 79.2436 72.6433 79.0625 72.1875 79.0625ZM70.4688 103.125H8.59375V82.5H70.4688V103.125Z" fill="black"/>
<path d="M104.844 3.4375H80.7812C80.3254 3.4375 79.8882 3.61858 79.5659 3.94091C79.2436 4.26324 79.0625 4.70041 79.0625 5.15625V73.9062C79.0625 74.3621 79.2436 74.7993 79.5659 75.1216C79.8882 75.4439 80.3254 75.625 80.7812 75.625H104.844C105.3 75.625 105.737 75.4439 106.059 75.1216C106.381 74.7993 106.562 74.3621 106.562 73.9062V5.15625C106.562 4.70041 106.381 4.26324 106.059 3.94091C105.737 3.61858 105.3 3.4375 104.844 3.4375ZM103.125 72.1875H82.5V6.875H103.125V72.1875Z" fill="black"/>
<path d="M101.406 85.9375H94.5312C93.1637 85.9375 91.8522 86.4807 90.8852 87.4477C89.9182 88.4147 89.375 89.7262 89.375 91.0938V101.406C89.375 102.774 89.9182 104.085 90.8852 105.052C91.8522 106.019 93.1637 106.562 94.5312 106.562H101.406C102.774 106.562 104.085 106.019 105.052 105.052C106.019 104.085 106.562 102.774 106.562 101.406V91.0938C106.562 89.7262 106.019 88.4147 105.052 87.4477C104.085 86.4807 102.774 85.9375 101.406 85.9375ZM103.125 91.0938V92.8125H99.6875V89.375H101.406C101.862 89.375 102.299 89.5561 102.622 89.8784C102.944 90.2007 103.125 90.6379 103.125 91.0938ZM94.5312 89.375H96.25V92.8125H92.8125V91.0938C92.8125 90.6379 92.9936 90.2007 93.3159 89.8784C93.6382 89.5561 94.0754 89.375 94.5312 89.375ZM101.406 103.125H94.5312C94.0754 103.125 93.6382 102.944 93.3159 102.622C92.9936 102.299 92.8125 101.862 92.8125 101.406V96.25H103.125V101.406C103.125 101.862 102.944 102.299 102.622 102.622C102.299 102.944 101.862 103.125 101.406 103.125Z" fill="black"/>
<path d="M12.0312 85.9375H18.9062V89.375H12.0312V85.9375Z" fill="black"/>
<path d="M12.0312 96.25H18.9062V99.6875H12.0312V96.25Z" fill="black"/>
<path d="M22.3438 85.9375H29.2188V89.375H22.3438V85.9375Z" fill="black"/>
<path d="M22.3438 96.25H29.2188V99.6875H22.3438V96.25Z" fill="black"/>
<path d="M32.6562 85.9375H39.5312V89.375H32.6562V85.9375Z" fill="black"/>
<path d="M32.6562 96.25H39.5312V99.6875H32.6562V96.25Z" fill="black"/>
<path d="M42.9688 85.9375H49.8438V89.375H42.9688V85.9375Z" fill="black"/>
<path d="M42.9688 96.25H49.8438V99.6875H42.9688V96.25Z" fill="black"/>
<path d="M55 99.6875H65.3125C65.7683 99.6875 66.2055 99.5064 66.5278 99.1841C66.8502 98.8618 67.0312 98.4246 67.0312 97.9688V87.6562C67.0312 87.2004 66.8502 86.7632 66.5278 86.4409C66.2055 86.1186 65.7683 85.9375 65.3125 85.9375H55C54.5442 85.9375 54.107 86.1186 53.7847 86.4409C53.4623 86.7632 53.2812 87.2004 53.2812 87.6562V97.9688C53.2812 98.4246 53.4623 98.8618 53.7847 99.1841C54.107 99.5064 54.5442 99.6875 55 99.6875ZM56.7188 89.375H63.5938V96.25H56.7188V89.375Z" fill="black"/>
<path d="M87.6562 20.625H97.9688C98.4246 20.625 98.8618 20.4439 99.1841 20.1216C99.5064 19.7993 99.6875 19.3621 99.6875 18.9062V12.0312C99.6875 11.5754 99.5064 11.1382 99.1841 10.8159C98.8618 10.4936 98.4246 10.3125 97.9688 10.3125H87.6562C87.2004 10.3125 86.7632 10.4936 86.4409 10.8159C86.1186 11.1382 85.9375 11.5754 85.9375 12.0312V18.9062C85.9375 19.3621 86.1186 19.7993 86.4409 20.1216C86.7632 20.4439 87.2004 20.625 87.6562 20.625ZM89.375 13.75H96.25V17.1875H89.375V13.75Z" fill="black"/>
<path d="M87.6562 34.375H97.9688C98.4246 34.375 98.8618 34.1939 99.1841 33.8716C99.5064 33.5493 99.6875 33.1121 99.6875 32.6562V25.7812C99.6875 25.3254 99.5064 24.8882 99.1841 24.5659C98.8618 24.2436 98.4246 24.0625 97.9688 24.0625H87.6562C87.2004 24.0625 86.7632 24.2436 86.4409 24.5659C86.1186 24.8882 85.9375 25.3254 85.9375 25.7812V32.6562C85.9375 33.1121 86.1186 33.5493 86.4409 33.8716C86.7632 34.1939 87.2004 34.375 87.6562 34.375ZM89.375 27.5H96.25V30.9375H89.375V27.5Z" fill="black"/>
<path d="M92.8125 53.2813C94.1722 53.2813 95.5015 52.878 96.632 52.1226C97.7626 51.3672 98.6438 50.2934 99.1642 49.0372C99.6845 47.781 99.8207 46.3986 99.5554 45.065C99.2901 43.7314 98.6353 42.5064 97.6739 41.5449C96.7124 40.5834 95.4874 39.9286 94.1537 39.6634C92.8201 39.3981 91.4378 39.5342 90.1815 40.0546C88.9253 40.5749 87.8516 41.4561 87.0961 42.5867C86.3407 43.7173 85.9375 45.0465 85.9375 46.4063C85.9375 48.2296 86.6618 49.9783 87.9511 51.2676C89.2405 52.5569 90.9891 53.2813 92.8125 53.2813ZM92.8125 42.9688C93.4924 42.9688 94.157 43.1704 94.7223 43.5481C95.2876 43.9258 95.7282 44.4627 95.9883 45.0908C96.2485 45.7189 96.3166 46.4101 96.1839 47.0769C96.0513 47.7437 95.7239 48.3562 95.2432 48.8369C94.7624 49.3177 94.1499 49.6451 93.4831 49.7777C92.8163 49.9103 92.1251 49.8423 91.497 49.5821C90.8689 49.3219 90.332 48.8813 89.9543 48.316C89.5766 47.7507 89.375 47.0861 89.375 46.4063C89.375 45.4946 89.7372 44.6202 90.3818 43.9756C91.0265 43.3309 91.9008 42.9688 92.8125 42.9688Z" fill="black"/>
<path d="M85.9375 65.3125H99.6875V68.75H85.9375V65.3125Z" fill="black"/>
<path d="M85.9375 58.4375H99.6875V61.875H85.9375V58.4375Z" fill="black"/>
</svg>
